<?xml version="1.0" encoding="iso-8859-1"?>
<!-- Generator: Adobe Illustrator 18.1.1, SVG Export Plug-In . SVG Version: 6.00 Build 0)  -->
<svg version="1.1" id="Capa_1" xmlns="http://www.w3.org/2000/svg" xmlns:xlink="http://www.w3.org/1999/xlink" x="0px" y="0px"
	 viewBox="0 0 49.363 49.363" style="enable-background:new 0 0 49.363 49.363;" xml:space="preserve">
<g>
	<path style="fill:#030104;" d="M44.343,11.853H5.018C2.251,11.853,0,14.087,0,16.833v22.22c0,2.746,2.251,4.98,5.018,4.98h39.326
		c2.767,0.001,5.019-2.234,5.019-4.98v-22.22C49.363,14.087,47.111,11.853,44.343,11.853z M47.286,39.054
		c0,1.6-1.32,2.903-2.942,2.903H5.018c-1.622,0-2.941-1.303-2.941-2.903v-22.22c0-1.601,1.319-2.903,2.941-2.903h39.326
		c1.622,0,2.942,1.303,2.942,2.903V39.054z M36.734,18.823c0-1.104,0.896-2,2-2h2.5c1.105,0,2,0.896,2,2s-0.895,2-2,2h-2.5
		C37.631,20.823,36.734,19.927,36.734,18.823z M15.216,6.589c0-0.694-0.564-1.259-1.258-1.259H6.075
		c-0.693,0-1.258,0.564-1.258,1.259v4.023h10.399V6.589z M13.834,9.227H6.2V6.712h7.634V9.227z M15.091,15.69
		c-6.481,0-11.753,5.272-11.753,11.753S8.61,39.196,15.091,39.196s11.752-5.272,11.752-11.753S21.572,15.69,15.091,15.69z
		 M15.091,37.229c-5.396,0-9.787-4.39-9.787-9.786s4.39-9.786,9.787-9.786s9.787,4.39,9.787,9.786S20.488,37.229,15.091,37.229z
		 M16.62,20.377c0,0.362-0.294,0.656-0.656,0.656c-3.897,0-7.067,3.17-7.067,7.066c0,0.362-0.294,0.655-0.656,0.655
		c-0.362,0-0.655-0.293-0.655-0.655c0-4.619,3.759-8.378,8.378-8.378C16.327,19.721,16.62,20.014,16.62,20.377z M41.753,26.944h-9
		c-1.93,0-3.5,1.57-3.5,3.5v3.334c0,1.93,1.57,3.5,3.5,3.5h9c1.93,0,3.5-1.57,3.5-3.5v-3.334
		C45.253,28.514,43.683,26.944,41.753,26.944z M44.253,33.778c0,1.379-1.121,2.5-2.5,2.5h-9c-1.379,0-2.5-1.121-2.5-2.5v-3.334
		c0-1.379,1.121-2.5,2.5-2.5h9c1.379,0,2.5,1.121,2.5,2.5V33.778z"/>
</g>
<g>
</g>
<g>
</g>
<g>
</g>
<g>
</g>
<g>
</g>
<g>
</g>
<g>
</g>
<g>
</g>
<g>
</g>
<g>
</g>
<g>
</g>
<g>
</g>
<g>
</g>
<g>
</g>
<g>
</g>
</svg>
