<?xml version="1.0" encoding="iso-8859-1"?>
<!-- Generator: Adobe Illustrator 16.0.0, SVG Export Plug-In . SVG Version: 6.00 Build 0)  -->
<!DOCTYPE svg PUBLIC "-//W3C//DTD SVG 1.1//EN" "http://www.w3.org/Graphics/SVG/1.1/DTD/svg11.dtd">
<svg version="1.1" id="Capa_1" xmlns="http://www.w3.org/2000/svg" xmlns:xlink="http://www.w3.org/1999/xlink" x="0px" y="0px"
	 width="612px" height="612px" viewBox="0 0 612 612" style="enable-background:new 0 0 612 612;" xml:space="preserve">
<g>
	<g>
		<path d="M392.299,197.425c-10.181,0-18.439,7.563-18.439,25.028c0,17.456,8.259,31.607,18.439,31.607
			c10.18,0,18.438-14.152,18.438-31.607C410.737,204.998,402.488,197.425,392.299,197.425z"/>
		<path d="M0,431.297c0,0,9.53,2.645,28.304,6.348v70.156h60.449l12.917-58.714h408.659l12.918,58.714h60.449v-70.156
			c18.764-3.703,28.304-6.348,28.304-6.348V200.812c0,0-25.241-7.016-74.536-14.17c-15.266-47.819-60.05-82.442-112.927-82.442
			c-47.143,0-87.862,27.524-106.951,67.381c-3.833-0.019-7.684-0.037-11.581-0.037C105.336,171.543,0,200.812,0,200.812
			 M236.851,366.672H61.674v-36.879h175.177V366.672z M236.851,282.382H61.674v-36.878h175.177V282.382z M425.232,302.798
			c-42.548,0-77.051-34.494-77.051-77.051c0-42.548,34.493-77.051,77.051-77.051c42.549,0,77.052,34.493,77.052,77.051
			C502.274,268.295,467.781,302.798,425.232,302.798z"/>
	</g>
</g>
<g>
</g>
<g>
</g>
<g>
</g>
<g>
</g>
<g>
</g>
<g>
</g>
<g>
</g>
<g>
</g>
<g>
</g>
<g>
</g>
<g>
</g>
<g>
</g>
<g>
</g>
<g>
</g>
<g>
</g>
</svg>
